<svg xmlns="http://www.w3.org/2000/svg" x="0px" y="0px"
width="24" height="24"
viewBox="0 0 172 172"
style=" fill:#000000;"><g fill="none" fill-rule="nonzero" stroke="none" stroke-width="1" stroke-linecap="butt" stroke-linejoin="miter" stroke-miterlimit="10" stroke-dasharray="" stroke-dashoffset="0" font-family="none" font-weight="none" font-size="none" text-anchor="none" style="mix-blend-mode: normal"><path d="M0,172v-172h172v172z" fill="none"></path><g fill="#000000"><path d="M86,0c-47.31119,0 -86,38.68881 -86,86c0,47.3112 38.68881,86 86,86c47.3112,0 86,-38.6888 86,-86c0,-47.31119 -38.6888,-86 -86,-86zM86,14.33333c39.41667,0 71.66667,32.25 71.66667,71.66667c0,39.41667 -32.25,71.66667 -71.66667,71.66667c-39.41667,0 -71.66667,-32.25 -71.66667,-71.66667c0,-39.41667 32.25,-71.66667 71.66667,-71.66667zM129,43l-56.66146,29.33854l-29.33854,56.66146l56.66146,-29.33854zM86,78.16146c4.3112,0 7.83854,3.52735 7.83854,7.83854c0,4.3112 -3.52734,7.83854 -7.83854,7.83854c-4.31119,0 -7.83854,-3.52734 -7.83854,-7.83854c0,-4.31119 3.52735,-7.83854 7.83854,-7.83854z"></path></g></g></svg>