<svg xmlns="http://www.w3.org/2000/svg" x="0px" y="0px"
width="64" height="64"
viewBox="0 0 172 172"
style=" fill:#000000;"><g fill="none" fill-rule="nonzero" stroke="none" stroke-width="1" stroke-linecap="butt" stroke-linejoin="miter" stroke-miterlimit="10" stroke-dasharray="" stroke-dashoffset="0" font-family="none" font-weight="none" font-size="none" text-anchor="none" style="mix-blend-mode: normal"><path d="M0,172v-172h172v172z" fill="none"></path><g><path d="M86,12.09375c40.85,0 73.90625,33.05625 73.90625,73.90625c0,40.85 -33.05625,73.90625 -73.90625,73.90625c-40.85,0 -73.90625,-33.05625 -73.90625,-73.90625c0,-40.85 33.05625,-73.90625 73.90625,-73.90625" fill="#ffffff"></path><path d="M86,12.09375v0c-2.6875,0 -5.375,0.13438 -7.92812,0.40313c-0.40313,0 -0.80625,0.13437 -1.075,0.13437c36.41563,4.70313 64.5,35.74375 64.5,73.36875c0,37.625 -28.08438,68.66563 -64.5,73.36875c2.95625,0.40312 6.04688,0.5375 9.1375,0.5375v0v0c40.85,0 73.90625,-33.05625 73.90625,-73.90625v0c-0.13438,-40.85 -33.19062,-73.90625 -74.04063,-73.90625" fill="#ffffff"></path><path d="M86,163.9375c-43,0 -77.9375,-34.9375 -77.9375,-77.9375c0,-43 34.9375,-77.9375 77.9375,-77.9375c43,0 77.9375,34.9375 77.9375,77.9375c0,43 -34.9375,77.9375 -77.9375,77.9375zM86,16.125c-38.56563,0 -69.875,31.30937 -69.875,69.875c0,38.56562 31.30937,69.875 69.875,69.875c38.56562,0 69.875,-31.30938 69.875,-69.875c0,-38.56563 -31.30938,-69.875 -69.875,-69.875z" fill="#000000"></path><path d="M86,31.57813c-28.89062,0 -52.40625,23.38125 -52.40625,52.40625c0,10.61563 3.225,20.55938 8.6,28.75625c9.40625,-14.24375 25.39688,-23.51562 43.67187,-23.51562c18.275,0 34.4,9.40625 43.67188,23.51563c5.50938,-8.19687 8.6,-18.14062 8.6,-28.75625c0.26875,-29.025 -23.24688,-52.40625 -52.1375,-52.40625zM86,77.66875c-10.88438,0 -19.61875,-8.73437 -19.61875,-19.61875c0,-10.88438 8.73438,-19.61875 19.61875,-19.61875c10.88437,0 19.61875,8.73438 19.61875,19.61875c0,10.75 -8.73437,19.61875 -19.61875,19.61875z" fill="#ffffff"></path><path d="M85.19375,81.1625v0c-12.22812,-0.5375 -21.63437,-10.34687 -21.63437,-22.44062c0,-12.3625 10.07813,-22.575 22.575,-22.575c12.49688,0 22.575,10.07813 22.575,22.575c0,11.69063 -9.1375,21.5 -20.82812,22.44063c-0.5375,0 -0.94063,0 -1.34375,-0.13438c-0.5375,0.13437 -0.94062,0.13437 -1.34375,0.13437zM86,44.20938c-7.92812,0 -14.5125,6.45 -14.5125,14.5125c0,7.79375 6.04688,14.10937 13.84063,14.37813c0.26875,0 0.5375,0 0.94062,0.13438c0.26875,-0.13438 0.5375,-0.13438 0.94063,-0.13438c7.525,-0.5375 13.30313,-6.85313 13.30313,-14.37813c0,-8.0625 -6.58438,-14.5125 -14.5125,-14.5125zM127.11875,114.35313c-1.34375,0 -2.55313,-0.67187 -3.35937,-1.74687c-8.33125,-12.76562 -22.575,-20.425 -37.75937,-20.425c-15.18438,0 -29.42812,7.65938 -37.75937,20.425c-1.20938,1.88125 -3.7625,2.41875 -5.64375,1.20937c-1.88125,-1.20937 -2.41875,-3.7625 -1.20937,-5.64375c10.07812,-15.05 26.60625,-24.05312 44.6125,-24.05312c18.00625,0 34.53437,9.00312 44.47813,23.91875c1.20937,1.88125 0.67188,4.3 -1.20938,5.64375c-0.5375,0.40313 -1.34375,0.67187 -2.15,0.67187z" fill="#000000"></path></g></g></svg>