<svg xmlns="http://www.w3.org/2000/svg" x="0px" y="0px"
width="64" height="64"
viewBox="0 0 172 172"
style=" fill:#000000;"><g fill="none" fill-rule="nonzero" stroke="none" stroke-width="1" stroke-linecap="butt" stroke-linejoin="miter" stroke-miterlimit="10" stroke-dasharray="" stroke-dashoffset="0" font-family="none" font-weight="none" font-size="none" text-anchor="none" style="mix-blend-mode: normal"><path d="M0,172v-172h172v172z" fill="none"></path><g fill="#000000"><path d="M139.75,143.78125h-107.5c-2.28438,0 -4.03125,-1.74687 -4.03125,-4.03125v-26.875c0,-2.28437 1.74687,-4.03125 4.03125,-4.03125c2.28437,0 4.03125,1.74688 4.03125,4.03125v22.84375h99.4375v-22.84375c0,-2.28437 1.74687,-4.03125 4.03125,-4.03125c2.28438,0 4.03125,1.74688 4.03125,4.03125v26.875c0,2.28438 -1.74687,4.03125 -4.03125,4.03125z"></path><path d="M86,103.46875c-2.28437,0 -4.03125,-1.74688 -4.03125,-4.03125v-67.1875c0,-2.28438 1.74688,-4.03125 4.03125,-4.03125c2.28437,0 4.03125,1.74687 4.03125,4.03125v67.1875c0,2.28437 -1.74688,4.03125 -4.03125,4.03125z"></path><path d="M106.15625,56.4375c-1.075,0 -2.01562,-0.40312 -2.82187,-1.20938l-17.33438,-17.33438l-17.33437,17.33438c-1.6125,1.6125 -4.16563,1.6125 -5.64375,0c-1.6125,-1.6125 -1.6125,-4.16562 0,-5.64375l20.15625,-20.15625c1.6125,-1.6125 4.16563,-1.6125 5.64375,0l20.15625,20.15625c1.6125,1.6125 1.6125,4.16562 0,5.64375c-0.80625,0.80625 -1.74687,1.20938 -2.82187,1.20938z"></path></g></g></svg>